# xmcd CD database file
#
# Track frame offsets:
#	150
#	15327
#	28705
#	46665
#	56085
#	64080
#	77272
#	90482
#	104207
#	114005
#	124217
#	139622
#	157317
#	171002
#	185650
#	197597
#	210142
#	219500
#
# Disc length: 3139 seconds
#
# Revision: 2
# Processed by: cddbd v1.5.2PL0 Copyright (c) Steve Scherf et al.
# Submitted via: CDex 1.70beta2
#
DISCID=eb0c4112
DTITLE=Various Artist - Country Music's Golden Hit Parade Disk 5
DYEAR=1900
DGENRE=Country
TTITLE0=Engelbert Humperdink - Release Me (And Let Me Love Again)
TTITLE1=Tom Jones - Funny Familiar, Forgotten Feelings
TTITLE2=Bobby Goldsboro - Honey
TTITLE3=Jim Reeves - There's A Heartache Following Me
TTITLE4=John D Loudermilk - The Language Of Love
TTITLE5=Ray Stevens - Misty
TTITLE6=Charlie Rich - Behind Closed Doors
TTITLE7=Glen Campbell - Wichita Lineman
TTITLE8=Anne Murray - Snowbird
TTITLE9=Guy Mitchell - Rock-A-Billy
TTITLE10=Juice Newton - Queen Of Hearts
TTITLE11=Wink Martindale - The Deck Of Cards
TTITLE12=Jimmy Dean - Big Bad John
TTITLE13=Lorne Green - Ringo
TTITLE14=Skeeter Davis - The End Of The World
TTITLE15=Roy Orbison - Crying
TTITLE16=Frank Ifield - I'm Confessin'
TTITLE17=Kenny Rogers - Lucille
EXTD=
EXTT0=
EXTT1=
EXTT2=
EXTT3=
EXTT4=
EXTT5=
EXTT6=
EXTT7=
EXTT8=
EXTT9=
EXTT10=
EXTT11=
EXTT12=
EXTT13=
EXTT14=
EXTT15=
EXTT16=
EXTT17=
PLAYORDER=
